 <svg version="1.0" xmlns="http://www.w3.org/2000/svg" width="700.000000pt" height="700.000000pt" viewBox="0 0 700.000000 700.000000" preserveAspectRatio="xMidYMid meet">
<metadata>
Created by potrace 1.12, written by Peter Selinger 2001-2015
</metadata>
<g transform="translate(0.000000,700.000000) scale(0.100000,-0.100000)" fill="#000000" stroke="none">
<path d="M3217 6449 c-255 -22 -559 -95 -802 -192 -55 -22 -106 -43 -115 -48
-8 -4 -55 -27 -105 -50 -230 -107 -529 -313 -744 -514 -113 -106 -303 -333
-422 -505 -77 -111 -188 -313 -243 -440 -15 -36 -31 -74 -36 -85 -128 -288
-220 -750 -220 -1095 1 -143 29 -445 54 -570 80 -399 221 -750 429 -1064 465
-703 1170 -1167 1982 -1305 498 -85 1043 -37 1506 133 609 223 1112 620 1472
1163 94 140 189 315 241 443 15 36 33 79 40 95 50 113 131 390 155 531 38 217
44 287 45 519 1 321 -19 486 -90 770 -76 303 -221 631 -392 890 -106 160 -300
393 -428 516 -260 248 -615 476 -959 614 -246 99 -548 170 -825 195 -130 11
-412 11 -543 -1z m544 -104 c563 -56 1076 -263 1519 -614 124 -98 366 -341
459 -461 298 -384 488 -810 575 -1290 18 -100 46 -410 46 -513 0 -174 -42
-481 -94 -678 -130 -498 -373 -923 -741 -1295 -381 -384 -780 -616 -1310 -758
-167 -44 -263 -62 -455 -81 -196 -19 -334 -19 -530 0 -195 20 -288 37 -470 86
-298 80 -537 182 -775 332 -303 191 -615 484 -815 766 -286 404 -456 851 -515
1354 -19 157 -16 553 4 692 138 943 708 1738 1553 2164 487 246 1022 348 1549
296z"></path>
<path d="M3563 5410 c-34 -73 -54 -127 -79 -215 -22 -76 -25 -247 -5 -293 7
-18 11 -35 8 -39 -15 -15 -177 128 -177 157 0 5 -4 10 -8 10 -5 0 -18 -30 -30
-67 -48 -150 -56 -195 -56 -333 -1 -117 2 -144 23 -205 13 -38 36 -90 51 -115
52 -89 49 -94 -25 -34 -52 41 -129 82 -235 123 -110 43 -138 58 -166 88 l-23
25 -7 -37 c-10 -56 2 -132 31 -182 14 -25 23 -48 20 -51 -2 -3 -33 1 -67 9
-139 31 -271 9 -377 -62 -66 -44 -161 -126 -161 -139 0 -4 18 -6 39 -3 65 9
165 -15 228 -55 49 -30 69 -36 131 -40 39 -2 72 -6 72 -9 0 -2 -13 -23 -28
-46 -64 -95 -88 -194 -62 -257 17 -40 26 -38 34 8 16 106 122 136 229 66 l37
-24 -29 -53 c-32 -58 -57 -137 -66 -209 -4 -27 -8 -48 -11 -48 -3 0 -17 11
-32 25 -15 14 -61 43 -101 63 -74 37 -76 37 -200 37 -112 0 -133 -3 -185 -25
-33 -14 -61 -30 -63 -36 -2 -6 30 -36 71 -66 42 -31 72 -58 69 -62 -3 -3 -29
-6 -57 -6 -146 0 -258 -66 -388 -229 -34 -42 -88 -104 -122 -139 -60 -62 -60
-62 -41 -81 11 -11 50 -36 86 -55 123 -67 206 -61 415 30 56 24 105 44 109 44
3 0 -9 -18 -27 -39 -70 -82 -108 -201 -94 -294 8 -55 19 -59 37 -14 21 51 90
112 145 130 27 8 103 18 169 21 110 6 146 11 215 32 25 8 25 7 7 -17 -34 -48
-65 -115 -76 -167 -18 -84 -12 -202 9 -202 5 0 34 21 65 46 31 25 58 44 60 42
2 -2 -5 -28 -15 -58 -45 -129 -4 -308 99 -430 l28 -34 6 70 c9 114 39 174 156
314 l29 34 11 -40 c6 -23 20 -49 30 -58 19 -17 20 -16 40 48 102 329 -3 601
-285 737 -44 22 -119 48 -166 58 -96 21 -108 26 -108 46 0 39 84 45 185 14 68
-21 100 -36 177 -86 62 -40 120 -39 175 5 83 65 109 180 79 350 -9 50 -16 94
-16 96 0 2 30 7 68 10 81 9 143 32 183 70 71 67 107 199 89 323 -20 140 -8
221 30 198 31 -19 52 -101 57 -220 5 -117 4 -123 -31 -229 -20 -60 -36 -125
-36 -146 0 -58 43 -90 143 -104 26 -4 47 -10 47 -14 0 -4 -12 -25 -26 -46 -38
-56 -83 -160 -94 -215 -11 -58 2 -116 30 -131 27 -15 109 -12 155 6 142 53
273 79 342 69 44 -6 62 -20 47 -35 -5 -5 -52 -14 -104 -21 -107 -13 -195 -42
-281 -95 -143 -87 -158 -204 -40 -319 64 -61 73 -127 35 -259 -8 -27 -14 -51
-14 -53 0 -12 55 2 105 26 105 50 174 142 190 254 7 50 14 57 36 31 19 -23 78
-51 126 -59 54 -9 141 14 232 59 87 44 139 54 180 33 34 -17 41 -14 41 20 0
37 -17 64 -73 115 l-52 48 58 0 c92 0 174 -56 235 -159 23 -40 27 -42 38 -26
36 49 30 196 -11 279 -55 113 -158 189 -297 220 -16 4 -28 10 -28 14 0 13 83
62 117 68 43 8 47 17 20 41 -40 36 -102 53 -195 53 -123 0 -215 -26 -303 -85
-39 -26 -73 -44 -76 -41 -4 3 23 36 59 73 74 78 118 162 127 243 6 51 9 56 50
84 61 40 134 112 127 124 -3 5 -17 7 -31 4 -30 -5 -103 12 -162 39 -76 35 -97
41 -153 48 l-55 7 70 46 c215 140 393 186 503 130 l43 -23 -16 37 c-87 208
-358 319 -549 224 -22 -11 -41 -18 -43 -17 -1 2 9 25 22 52 44 87 30 186 -33
230 -18 13 -20 13 -26 -9 -9 -37 -50 -81 -135 -146 -70 -52 -100 -82 -154
-152 -18 -23 -18 -23 -14 32 6 71 25 109 118 250 118 177 151 265 151 404 0
80 -18 202 -32 211 -3 2 -19 -23 -34 -56 -25 -54 -33 -63 -79 -85 -64 -29 -76
-39 -110 -88 -30 -45 -27 -50 -47 77 -20 129 -70 224 -178 342 -72 79 -90 109
-107 180 l-12 50 -30 -65z"></path>
<path d="M3622 3263 c-64 -76 -122 -243 -122 -350 0 -61 -8 -65 -60 -30 -35
23 -112 57 -130 57 -5 0 8 -33 30 -72 81 -153 112 -330 114 -648 1 -356 -25
-557 -84 -640 -12 -17 -20 -33 -18 -36 3 -2 103 -3 222 -2 l218 3 -22 25 c-51
58 -68 118 -107 370 -13 87 -18 178 -18 370 0 233 2 262 22 330 33 116 58 166
109 220 26 28 44 53 41 56 -13 13 -114 -18 -148 -46 -20 -16 -39 -26 -43 -23
-3 4 -6 58 -6 122 0 111 17 234 39 294 13 34 13 37 3 37 -5 0 -23 -17 -40 -37z"></path>
</g>
</svg>